<?xml version="1.0" standalone="no"?>
<!DOCTYPE svg PUBLIC "-//W3C//DTD SVG 20010904//EN"
 "http://www.w3.org/TR/2001/REC-SVG-20010904/DTD/svg10.dtd">
<svg version="1.0" xmlns="http://www.w3.org/2000/svg"
 width="3000.000000pt" height="2000.000000pt" viewBox="0 0 3000.000000 2000.000000"
 preserveAspectRatio="xMidYMid meet">

<g transform="translate(0.000000,2000.000000) scale(0.100000,-0.100000)"
fill="#ffffff" stroke="none">
<path d="M13374 18961 c-18 -11 -43 -34 -57 -53 -34 -44 -381 -596 -522 -828
-62 -102 -153 -248 -202 -325 -49 -77 -129 -207 -177 -288 -48 -82 -132 -219
-186 -305 -54 -87 -127 -202 -161 -257 -450 -716 -614 -964 -823 -1241 -205
-271 -266 -356 -282 -386 -9 -18 -45 -67 -79 -108 -34 -41 -76 -96 -93 -122
-17 -25 -74 -93 -125 -150 -51 -56 -127 -146 -169 -199 -41 -52 -127 -151
-190 -220 -177 -190 -697 -700 -852 -834 -77 -66 -167 -144 -200 -174 -96 -84
-432 -351 -531 -421 -49 -35 -146 -105 -215 -155 -69 -51 -170 -119 -225 -152
-55 -33 -130 -82 -166 -110 -36 -27 -106 -74 -155 -103 -49 -30 -219 -138
-379 -240 -289 -186 -339 -216 -575 -345 -69 -38 -195 -112 -280 -166 -85 -53
-193 -116 -239 -139 -78 -39 -190 -103 -381 -218 -41 -24 -136 -80 -211 -122
-75 -43 -190 -112 -255 -153 -66 -41 -168 -100 -227 -131 -59 -31 -127 -71
-151 -90 -24 -18 -124 -81 -222 -141 -194 -117 -495 -316 -749 -494 -88 -62
-218 -149 -290 -193 -137 -84 -214 -136 -338 -231 -86 -64 -100 -96 -74 -158
17 -41 148 -187 428 -475 112 -115 396 -407 631 -649 479 -495 987 -1001 1278
-1274 204 -192 260 -249 260 -263 0 -14 -49 -29 -185 -55 -71 -13 -220 -42
-330 -63 -600 -118 -1133 -190 -1590 -215 -294 -16 -384 -32 -399 -70 -11 -29
-6 -197 9 -330 8 -72 38 -290 65 -485 27 -195 68 -494 90 -665 42 -324 91
-666 185 -1295 30 -206 62 -424 71 -485 8 -60 30 -195 49 -300 19 -104 46
-273 60 -375 14 -102 46 -306 70 -455 24 -148 72 -436 105 -640 33 -203 65
-395 70 -424 13 -69 46 -138 73 -153 61 -32 680 25 1427 133 672 96 1535 288
2310 513 539 156 2364 782 2775 951 44 19 167 63 273 99 107 37 210 75 230 85
46 23 101 43 642 232 673 235 1434 480 1765 568 105 27 370 95 590 150 362 90
544 131 1052 236 173 36 715 128 998 169 271 40 935 110 1290 136 208 15 285
47 285 117 0 39 -81 246 -190 488 -97 215 -270 621 -270 634 0 6 -20 48 -44
94 -46 85 -74 162 -63 173 4 4 104 -58 224 -136 903 -594 1238 -780 2783
-1554 944 -472 1091 -541 1191 -557 l60 -10 119 113 c65 62 226 214 357 338
385 364 1083 1038 1698 1638 812 795 2230 2283 2350 2466 41 62 10 120 -88
169 -73 37 -489 223 -567 254 -36 14 -130 55 -210 90 -80 36 -269 118 -421
183 -151 65 -316 138 -365 163 -49 24 -107 50 -129 57 -22 7 -128 53 -235 103
-107 49 -283 129 -390 177 -242 109 -653 312 -694 344 -17 13 -65 40 -106 61
-41 21 -125 66 -187 101 -61 35 -137 75 -170 89 -32 14 -98 50 -148 79 -49 29
-128 74 -175 101 -47 26 -121 74 -165 105 -44 32 -109 72 -144 90 -69 34 -371
238 -371 250 0 4 -28 22 -62 40 -33 18 -77 47 -97 65 -20 18 -91 71 -158 119
-67 47 -126 92 -130 99 -4 7 -42 36 -83 65 -41 28 -126 96 -187 151 -159 141
-294 253 -358 298 -30 21 -62 52 -72 70 -9 18 -39 48 -65 69 -62 47 -652 646
-715 726 -26 33 -81 97 -122 142 -40 44 -85 97 -100 116 -92 124 -242 314
-286 362 -62 67 -274 347 -330 436 -71 113 -179 268 -247 359 -72 94 -453 684
-546 843 -30 52 -93 153 -140 225 -46 71 -113 183 -148 248 -36 66 -84 147
-108 180 -24 34 -69 109 -101 167 -53 96 -165 279 -363 595 -153 245 -212 345
-291 494 -45 83 -113 199 -151 256 -66 98 -73 105 -103 105 -62 0 -148 -61
-382 -270 -317 -283 -700 -592 -729 -588 -37 6 -641 727 -757 904 -20 31 -57
77 -82 102 -25 26 -70 85 -100 132 -29 47 -89 129 -131 184 -112 143 -286 383
-286 394 0 5 -29 49 -65 97 -36 48 -93 134 -127 191 -34 57 -83 131 -110 163
-26 33 -93 130 -149 218 -160 248 -410 613 -450 655 -41 43 -68 48 -115 19z
m303 -743 c144 -218 290 -435 327 -482 36 -47 74 -105 84 -129 10 -23 42 -70
70 -104 28 -34 72 -97 98 -140 56 -96 186 -279 250 -353 26 -30 90 -116 142
-190 53 -74 139 -188 192 -255 53 -66 137 -175 188 -242 115 -153 202 -257
372 -447 l133 -149 -51 -48 c-31 -31 -59 -49 -74 -49 -17 1 -47 29 -111 104
-49 57 -96 115 -105 127 -8 13 -54 69 -102 124 -48 55 -124 149 -169 208 -45
60 -116 150 -159 200 -101 120 -191 238 -233 307 -18 30 -55 80 -82 110 -54
62 -162 216 -176 252 -5 12 -44 68 -86 123 -42 55 -110 150 -150 210 -95 143
-218 275 -290 311 -58 28 -83 28 -271 8 -57 -6 -65 -4 -140 34 -111 55 -170
75 -194 62 -10 -6 -45 -52 -76 -103 -31 -50 -95 -150 -142 -222 -47 -71 -113
-177 -147 -235 -141 -238 -255 -422 -331 -535 -45 -66 -115 -176 -156 -245
-219 -365 -768 -1163 -1001 -1452 -67 -84 -158 -200 -202 -258 -166 -220 -322
-405 -580 -685 -290 -315 -287 -313 -550 -556 -300 -278 -561 -495 -975 -812
-133 -101 -781 -537 -973 -653 -53 -32 -148 -90 -210 -128 -61 -38 -204 -123
-317 -189 -113 -65 -234 -138 -270 -162 -36 -23 -103 -63 -150 -90 -47 -26
-123 -71 -170 -100 -47 -29 -146 -85 -220 -125 -74 -41 -234 -132 -355 -203
-120 -71 -253 -146 -295 -166 -41 -21 -98 -54 -126 -74 -28 -20 -54 -37 -57
-37 -10 0 -516 -298 -587 -346 -36 -24 -82 -51 -104 -59 -21 -9 -68 -39 -103
-66 -36 -28 -100 -67 -142 -89 -87 -44 -231 -144 -280 -194 -49 -51 -52 -104
-13 -242 58 -205 66 -283 42 -431 -12 -76 -12 -82 8 -124 21 -44 428 -516 711
-824 184 -202 763 -786 1044 -1055 l215 -205 -41 -13 c-113 -34 -112 -34 -175
13 -192 146 -1191 1141 -1937 1930 -104 110 -286 300 -405 423 -118 123 -218
229 -222 237 -6 10 32 38 139 103 82 49 263 162 403 252 140 90 294 187 342
216 48 29 120 78 159 107 39 30 130 90 202 132 73 43 184 109 247 148 357 215
887 526 965 565 50 25 122 64 160 87 39 23 133 77 210 120 77 43 239 138 360
210 121 73 290 171 375 220 85 48 250 149 365 225 116 76 226 145 245 155 19
9 64 36 100 60 36 23 86 55 112 71 236 146 775 536 1069 773 301 243 712 623
957 884 311 332 678 760 831 971 47 65 167 227 266 360 306 409 767 1114 1165
1781 257 429 585 964 632 1029 27 38 66 99 85 135 37 69 174 284 178 279 1 -2
119 -181 262 -400z m-391 -775 c97 -47 101 -48 194 -48 93 0 96 1 149 37 l54
37 56 -69 c31 -38 85 -115 120 -172 35 -57 94 -143 131 -193 37 -49 109 -153
160 -230 51 -77 125 -183 164 -235 40 -52 108 -147 153 -210 44 -63 131 -174
191 -247 61 -73 132 -163 158 -200 26 -37 84 -107 129 -154 120 -127 245 -284
245 -308 0 -9 -30 -33 -194 -159 -27 -20 -101 -78 -165 -127 -196 -153 -455
-343 -483 -356 -25 -11 -36 -8 -99 21 -68 31 -76 32 -158 27 -132 -8 -190 -34
-281 -126 -86 -87 -138 -181 -192 -348 -17 -54 -42 -112 -54 -129 -28 -39
-223 -188 -364 -279 -58 -37 -166 -114 -240 -170 -74 -56 -171 -125 -215 -155
-44 -29 -156 -109 -250 -177 -93 -67 -204 -147 -245 -175 -41 -29 -85 -68 -97
-87 -29 -42 -30 -98 -3 -151 11 -22 20 -42 20 -45 0 -3 -27 -5 -60 -5 -56 0
-60 -2 -76 -31 -30 -58 -2 -93 187 -231 155 -114 175 -141 329 -433 57 -109
57 -109 -55 -4 -125 116 -397 302 -500 342 -27 10 -73 29 -101 42 -28 13 -89
37 -135 53 -46 17 -114 42 -151 56 -116 44 -322 70 -568 70 -135 1 -245 -4
-295 -13 -260 -43 -598 -172 -787 -299 -436 -294 -732 -728 -838 -1227 -40
-190 -38 -469 5 -707 72 -393 187 -651 423 -948 99 -124 308 -330 409 -402
111 -80 358 -231 462 -283 122 -61 385 -148 596 -196 99 -22 181 -42 183 -44
2 -1 -18 -11 -45 -21 -26 -9 -151 -58 -278 -107 -126 -49 -264 -101 -305 -115
-41 -13 -120 -44 -175 -68 -93 -40 -642 -256 -1095 -431 -264 -102 -1185 -433
-1390 -499 -593 -191 -954 -294 -1031 -294 -36 0 -49 9 -138 90 -320 290
-1100 1085 -1581 1610 -68 74 -164 177 -213 229 -49 51 -93 103 -99 115 -7 18
-4 37 18 87 21 50 28 85 32 162 5 112 -6 176 -49 278 -16 37 -29 74 -29 81 0
18 125 99 271 177 63 34 124 73 136 87 13 14 38 30 55 36 18 6 56 28 83 48 50
37 226 146 470 290 72 42 204 122 295 177 91 55 323 189 515 298 193 109 393
224 445 255 52 32 187 110 300 175 113 64 219 127 235 140 17 12 53 34 81 48
28 14 95 53 148 87 53 33 107 65 121 70 55 21 912 577 1075 698 148 110 323
247 430 337 47 39 119 95 160 123 135 93 525 453 824 761 323 332 497 532 793
911 146 187 241 315 492 655 80 109 349 503 395 578 11 18 72 113 137 212 64
99 131 207 150 240 18 33 69 114 114 180 94 137 295 455 377 595 195 332 259
440 262 440 3 0 48 -21 102 -47z m3623 -1130 c104 -203 381 -688 499 -873 43
-69 106 -174 139 -235 33 -60 87 -151 119 -202 32 -51 82 -131 109 -180 28
-48 86 -143 129 -213 44 -69 104 -168 134 -220 29 -52 83 -139 118 -193 35
-54 77 -124 93 -156 16 -32 45 -78 64 -102 18 -25 52 -76 75 -114 22 -39 96
-151 164 -250 68 -100 155 -227 193 -283 180 -264 322 -458 425 -582 62 -74
150 -185 196 -247 222 -298 811 -925 1227 -1305 255 -233 601 -511 907 -728
362 -258 967 -641 1163 -738 49 -24 129 -68 179 -98 171 -104 917 -486 1061
-543 40 -16 160 -71 267 -121 283 -134 597 -274 660 -295 30 -10 60 -21 65
-25 6 -5 74 -35 151 -68 78 -33 166 -72 195 -86 30 -14 113 -49 184 -79 72
-29 250 -109 396 -177 l266 -124 -550 -576 c-619 -647 -1913 -1945 -2472
-2481 -480 -459 -856 -815 -972 -919 -51 -45 -93 -86 -93 -90 0 -11 -269 -254
-285 -258 -25 -6 -1919 956 -2355 1196 -539 296 -818 464 -1309 785 -362 236
-489 325 -557 389 -48 45 -102 130 -119 188 l-8 24 29 -18 c16 -10 128 -89
249 -176 572 -408 1187 -790 1870 -1160 105 -56 242 -131 305 -165 63 -34 331
-173 595 -308 635 -325 814 -407 889 -407 17 0 69 16 116 36 155 64 160 65
320 75 181 10 259 23 315 51 22 11 87 66 145 122 59 55 164 155 235 220 435
400 2509 2463 2658 2643 140 170 196 267 197 338 0 22 -7 80 -15 128 l-16 88
42 117 c71 201 74 217 56 245 -9 14 -40 33 -79 47 -89 32 -219 93 -287 134
-32 20 -85 44 -117 55 -94 30 -244 97 -614 271 -445 209 -949 456 -1120 550
-74 40 -207 111 -295 158 -88 46 -221 124 -295 172 -74 48 -169 104 -210 125
-138 69 -455 265 -602 372 -17 13 -39 23 -49 23 -10 0 -26 11 -35 25 -9 13
-39 39 -67 56 -29 18 -77 51 -107 74 -30 24 -73 52 -95 63 -52 26 -227 158
-375 282 -63 53 -160 131 -215 173 -55 42 -158 128 -230 193 -227 204 -745
705 -799 773 -29 36 -102 120 -162 186 -284 312 -615 733 -911 1159 -48 69
-152 217 -229 328 -78 112 -164 240 -192 285 -27 45 -61 96 -76 114 -15 17
-38 53 -51 79 -13 26 -67 112 -118 191 -52 79 -119 189 -148 244 -29 55 -74
132 -101 172 -26 39 -77 124 -113 188 -35 64 -77 135 -93 158 -53 78 -160 261
-217 372 -31 61 -65 119 -75 130 -10 11 -46 72 -81 135 -128 237 -205 320
-294 320 -14 0 -67 -13 -117 -30 -50 -16 -118 -34 -152 -40 -82 -13 -231 -13
-316 1 -64 11 -71 10 -107 -11 -47 -28 -320 -228 -513 -376 -80 -61 -264 -198
-410 -304 -146 -107 -357 -264 -470 -350 -113 -86 -261 -196 -330 -245 -69
-48 -172 -125 -230 -170 -58 -45 -270 -204 -471 -353 -339 -250 -490 -356
-739 -519 -53 -34 -117 -83 -143 -108 -44 -44 -47 -50 -47 -98 0 -29 10 -101
22 -161 l21 -108 -28 -177 c-21 -136 -27 -201 -23 -281 3 -104 4 -107 59 -220
31 -63 146 -277 256 -475 110 -198 251 -454 312 -569 62 -114 129 -234 150
-265 21 -31 64 -105 96 -166 82 -154 193 -348 370 -645 201 -336 235 -396 235
-409 0 -20 -98 -13 -118 7 -28 28 -273 425 -380 617 -53 94 -127 222 -166 285
-38 63 -107 187 -153 274 -46 88 -92 173 -102 190 -30 49 -341 626 -426 791
-71 135 -180 337 -377 695 -98 177 -258 496 -258 513 0 8 39 40 88 72 48 32
148 104 222 160 74 56 196 144 270 195 74 52 244 174 378 272 134 98 271 197
305 220 34 23 112 78 172 123 240 178 807 596 921 678 66 48 154 117 195 153
41 36 155 127 254 202 99 76 274 214 390 307 115 94 334 270 485 391 151 122
385 319 520 438 135 119 250 216 256 216 6 0 52 -80 103 -177z m-7 -841 c20
-31 69 -118 108 -192 40 -74 85 -151 101 -171 16 -20 29 -46 29 -57 0 -11 16
-39 36 -63 19 -23 45 -61 56 -83 11 -23 52 -90 90 -149 38 -60 76 -123 83
-140 7 -18 28 -52 46 -77 18 -25 49 -74 70 -110 43 -77 181 -300 286 -460 41
-63 96 -151 123 -195 79 -134 259 -416 289 -454 15 -20 92 -130 171 -246 79
-115 169 -244 200 -285 31 -41 76 -104 100 -140 24 -36 58 -82 76 -102 18 -20
40 -51 49 -68 22 -42 461 -589 611 -760 132 -152 728 -751 933 -938 74 -68
178 -158 230 -200 53 -42 125 -101 161 -132 98 -85 415 -329 486 -375 119 -75
156 -100 217 -146 117 -86 338 -234 400 -268 34 -18 192 -110 350 -203 158
-93 359 -208 445 -255 86 -47 182 -100 212 -118 152 -91 871 -449 1032 -514
40 -16 120 -54 178 -85 128 -67 632 -300 680 -314 39 -11 300 -130 313 -142 4
-4 -7 -45 -26 -91 -77 -185 -86 -271 -39 -360 15 -30 31 -63 35 -73 6 -16 -98
-125 -590 -619 -880 -882 -2012 -1998 -2223 -2192 -102 -93 -224 -208 -273
-254 l-87 -85 -173 -2 c-191 -1 -254 -13 -387 -75 l-73 -33 -66 35 c-36 19
-237 124 -446 233 -964 504 -1472 784 -1875 1034 -102 63 -243 151 -315 195
-507 314 -1231 844 -1304 953 -16 24 -40 72 -54 107 -79 191 -201 500 -219
552 -11 33 -32 91 -46 128 -13 37 -22 70 -20 73 3 2 27 -11 54 -29 116 -80
304 -169 509 -242 353 -126 764 -150 1224 -74 156 26 263 57 416 120 154 63
189 82 370 198 114 72 176 121 259 201 251 242 364 389 480 618 41 81 100 255
152 443 34 123 37 148 41 306 9 317 -14 497 -98 759 -33 103 -43 127 -126 284
-131 248 -192 328 -419 550 -223 218 -397 330 -697 447 -250 97 -415 135 -670
154 -171 12 -361 3 -564 -27 -143 -21 -424 -93 -543 -138 -289 -112 -607 -334
-823 -575 -120 -134 -305 -431 -363 -583 -14 -37 -33 -77 -42 -87 -20 -23
-105 -35 -377 -51 -349 -21 -713 -55 -973 -92 l-153 -21 -25 24 c-15 13 -58
78 -97 144 -39 66 -108 176 -153 245 -153 236 -393 649 -554 955 -15 28 -42
75 -62 105 -19 30 -80 141 -136 247 -56 105 -120 222 -143 260 -23 37 -53 92
-65 120 -13 29 -45 88 -71 130 -25 43 -85 156 -132 253 -98 202 -99 206 -57
355 34 124 44 288 26 430 -6 54 -14 104 -17 111 -3 7 10 20 28 30 18 9 65 40
104 69 38 29 77 54 85 57 36 13 1462 1067 1640 1213 41 34 215 167 385 295
171 129 442 340 604 469 161 130 311 249 332 265 l37 28 89 -38 c74 -32 99
-38 158 -38 114 0 222 20 279 53 28 17 56 30 61 30 6 1 27 -25 47 -57z m-2863
-888 c-7 -8 -53 -43 -102 -77 -48 -34 -97 -68 -108 -76 -32 -23 -22 6 19 51
46 52 147 118 180 118 21 0 23 -2 11 -16z m-2814 -1935 c207 -18 395 -66 564
-145 52 -24 100 -44 108 -44 22 0 143 -65 200 -107 235 -174 327 -254 466
-408 225 -249 387 -527 490 -840 62 -187 97 -408 97 -610 0 -195 -45 -475 -94
-580 -13 -27 -35 -77 -50 -109 -86 -187 -353 -502 -479 -565 -81 -40 -186 -81
-249 -97 -34 -9 -117 -36 -183 -61 -182 -68 -414 -141 -470 -148 -59 -8 -317
10 -458 31 -227 33 -448 96 -614 174 -158 74 -406 220 -494 290 -347 278 -627
691 -723 1065 -50 195 -62 455 -31 688 23 175 103 398 210 587 277 490 756
805 1328 874 141 17 230 19 382 5z m7155 -1559 c243 -25 528 -115 781 -246
319 -166 664 -521 824 -849 62 -125 119 -306 146 -460 19 -110 23 -164 23
-355 -1 -210 -2 -232 -28 -335 -15 -60 -38 -134 -51 -164 -14 -29 -25 -63 -25
-76 0 -61 -62 -193 -147 -312 -32 -45 -71 -103 -87 -129 -68 -109 -344 -368
-500 -469 -154 -100 -452 -238 -595 -275 -165 -44 -283 -55 -561 -54 l-265 0
-174 38 c-96 20 -214 52 -263 71 -135 52 -314 147 -460 245 -149 98 -226 167
-257 229 -31 60 -249 730 -272 836 -11 50 -38 151 -59 225 -42 144 -140 534
-161 637 -24 117 10 222 159 483 84 149 141 227 242 334 166 176 374 325 615
442 224 108 400 162 600 183 114 12 403 12 515 1z m-4919 -477 c252 -451 411
-722 522 -886 32 -49 57 -91 54 -93 -2 -3 -123 -34 -268 -70 -145 -35 -365
-92 -490 -124 -226 -60 -269 -68 -269 -50 0 5 24 45 53 88 156 228 222 389
266 652 35 208 43 358 26 515 -8 77 -15 145 -15 150 1 21 41 -39 121 -182z
m2568 -1045 c11 -40 39 -156 61 -257 23 -102 61 -254 85 -338 24 -84 47 -175
51 -201 3 -26 14 -63 24 -82 10 -19 23 -64 30 -100 16 -86 75 -279 110 -360
15 -36 38 -105 49 -155 12 -49 40 -136 61 -191 22 -56 72 -198 111 -315 39
-118 94 -270 122 -339 27 -69 85 -217 128 -330 43 -113 108 -277 144 -365 37
-88 95 -230 130 -315 136 -333 185 -452 262 -625 112 -251 160 -365 169 -400
4 -17 35 -91 69 -165 34 -74 70 -160 80 -190 10 -30 38 -99 62 -153 24 -54 47
-113 50 -132 l6 -35 -77 0 c-138 0 -1077 -103 -1381 -151 -318 -51 -834 -142
-927 -163 -57 -14 -173 -38 -259 -55 -86 -17 -174 -37 -196 -45 -22 -8 -78
-22 -124 -31 -231 -46 -1045 -264 -1419 -380 -361 -112 -997 -323 -1145 -379
-77 -30 -233 -86 -348 -125 -114 -39 -253 -89 -310 -110 -56 -21 -201 -74
-322 -116 -121 -42 -249 -90 -285 -107 -36 -16 -139 -56 -230 -88 -424 -150
-482 -171 -542 -196 -34 -14 -241 -88 -458 -164 -217 -76 -478 -167 -580 -203
-102 -36 -268 -91 -370 -122 -102 -31 -194 -63 -206 -70 -11 -7 -43 -16 -70
-20 -27 -4 -61 -13 -75 -21 -43 -22 -745 -218 -1084 -303 -742 -186 -1826
-367 -2460 -410 -82 -6 -180 -13 -217 -16 -42 -3 -68 -1 -68 5 0 5 -25 155
-55 332 -30 178 -64 395 -75 483 -11 88 -27 188 -35 221 -8 34 -28 156 -45
270 -17 115 -50 328 -75 474 -24 146 -53 330 -65 410 -12 80 -32 201 -45 270
-14 69 -38 231 -55 360 -17 129 -43 309 -59 400 -17 91 -35 215 -41 275 -7 61
-18 141 -26 178 -14 69 -76 537 -119 907 -13 113 -35 284 -49 380 -14 96 -28
207 -32 247 l-7 71 74 6 c41 3 139 8 219 11 262 9 763 63 1020 110 74 13 173
29 220 35 109 14 384 68 667 131 123 27 242 49 265 49 58 0 205 36 246 60 31
19 184 50 312 65 65 8 120 23 120 35 0 11 32 23 270 94 539 162 1352 443 2029
701 430 164 802 308 911 353 262 109 1286 498 1439 546 44 14 149 39 233 56
216 44 508 144 613 211 110 70 436 170 1020 314 378 93 559 132 935 199 349
62 496 82 950 129 19 2 155 5 301 5 l266 2 22 -72z"/>
<path d="M13213 17161 c-17 -11 -49 -46 -71 -78 -71 -105 -274 -437 -292 -478
-10 -22 -46 -100 -81 -173 -52 -112 -62 -141 -61 -186 0 -54 18 -102 46 -125
12 -10 20 -9 43 3 58 30 116 107 202 271 29 55 81 140 116 190 84 121 190 317
210 388 22 78 13 140 -25 179 -34 33 -45 34 -87 9z"/>
<path d="M8769 10559 c-18 -18 -20 -28 -14 -78 3 -31 17 -98 31 -150 33 -126
155 -416 192 -455 16 -17 32 -43 36 -59 17 -72 314 -467 465 -618 165 -164
419 -348 671 -485 97 -53 136 -69 175 -71 59 -5 78 5 78 42 0 48 -52 90 -467
379 -167 117 -262 201 -392 347 -179 201 -248 307 -425 656 -57 113 -102 214
-109 247 -14 71 -91 229 -121 250 -34 23 -94 21 -120 -5z"/>
<path d="M5907 10256 c-116 -48 -536 -296 -659 -388 -68 -52 -99 -96 -91 -128
3 -10 20 -32 38 -50 31 -30 37 -32 89 -28 66 6 236 87 441 212 72 43 180 108
240 143 61 35 120 75 133 89 44 50 20 124 -52 158 -46 21 -70 20 -139 -8z"/>
<path d="M8620 9852 c-50 -40 -19 -143 106 -352 97 -162 184 -271 353 -441
212 -211 349 -310 432 -313 52 -1 72 19 66 66 -7 54 -35 86 -163 194 -181 151
-360 359 -544 629 -106 156 -176 235 -207 235 -11 0 -31 -8 -43 -18z"/>
<path d="M7545 9057 c-149 -33 -241 -94 -316 -210 -72 -112 -73 -201 -3 -348
65 -136 146 -207 318 -282 112 -48 206 -60 372 -48 139 11 201 31 279 91 163
126 180 318 46 523 -104 160 -307 269 -541 291 -37 3 -87 -2 -155 -17z m270
-181 c114 -30 207 -102 254 -198 68 -136 16 -273 -127 -329 -46 -19 -77 -23
-162 -24 -95 0 -110 3 -162 28 -81 40 -151 106 -178 169 -32 72 -39 200 -15
251 20 43 80 86 143 103 62 17 185 17 247 0z"/>
<path d="M16661 15155 c-44 -51 -43 -110 6 -224 44 -104 139 -281 199 -372 24
-37 44 -70 44 -74 0 -15 104 -189 133 -221 44 -51 86 -48 143 10 53 52 55 75
18 166 -39 97 -123 260 -159 310 -17 25 -72 114 -121 199 -141 243 -194 284
-263 206z"/>
<path d="M15461 13254 c-147 -31 -216 -90 -300 -252 -71 -139 -85 -195 -78
-312 19 -335 230 -554 507 -525 174 19 300 117 388 305 34 71 36 82 40 200 2
69 -1 152 -7 185 -29 156 -148 306 -305 385 -68 34 -136 38 -245 14z m251
-242 c88 -55 133 -161 126 -301 -7 -137 -65 -246 -161 -301 -41 -23 -64 -30
-108 -30 -130 0 -215 54 -274 173 -56 117 -64 233 -19 319 29 57 117 135 170
152 75 24 219 17 266 -12z"/>
<path d="M13195 12470 c-13 -15 -16 -30 -13 -64 6 -52 84 -218 166 -354 32
-53 84 -146 116 -207 68 -131 160 -270 199 -299 26 -19 30 -19 55 -5 41 23 49
59 29 135 -20 78 -80 210 -108 240 -12 13 -38 55 -58 96 -83 162 -217 386
-259 431 -51 53 -94 63 -127 27z"/>
<path d="M16750 11776 c-149 -52 -421 -207 -559 -319 -100 -80 -341 -321 -374
-372 -34 -54 -40 -131 -11 -159 18 -18 70 -21 110 -6 15 6 100 81 189 168 194
189 331 297 485 381 157 87 305 185 325 215 20 29 11 51 -36 90 -37 31 -45 31
-129 2z"/>
<path d="M17481 11609 c-61 -12 -217 -64 -332 -110 -178 -72 -392 -189 -599
-326 -184 -122 -219 -150 -341 -272 -187 -187 -355 -409 -435 -576 -36 -74
-46 -159 -22 -183 22 -22 66 -13 103 19 41 36 233 269 319 388 117 161 364
378 576 505 195 118 526 274 626 296 63 14 218 83 261 116 47 36 57 58 43 100
-6 19 -20 39 -30 44 -22 12 -107 11 -169 -1z"/>
<path d="M20511 8465 c-16 -14 -80 -108 -142 -208 -208 -339 -329 -497 -487
-635 -245 -212 -552 -394 -811 -481 -50 -17 -109 -40 -130 -50 -50 -26 -103
-79 -99 -99 2 -9 21 -27 43 -40 35 -20 49 -23 120 -19 99 6 208 42 432 142
200 90 278 133 405 228 385 287 672 649 788 996 33 99 32 125 -6 166 -30 33
-73 33 -113 0z"/>
<path d="M23862 8254 c-39 -20 -82 -69 -82 -93 0 -20 59 -79 110 -109 20 -11
69 -33 110 -47 41 -15 147 -62 235 -105 222 -107 294 -133 380 -134 56 -1 77
3 106 21 84 53 77 157 -13 193 -18 8 -116 52 -218 98 -210 95 -459 182 -540
189 -39 3 -65 -1 -88 -13z"/>
<path d="M20372 7527 c-166 -160 -230 -213 -382 -312 -135 -89 -220 -169 -220
-208 0 -73 116 -85 242 -25 204 97 519 360 583 487 53 107 30 181 -56 181 -37
0 -48 -8 -167 -123z"/>
<path d="M21800 7021 c-228 -50 -374 -153 -454 -321 -28 -59 -31 -74 -30 -160
0 -112 16 -152 97 -237 99 -105 255 -172 447 -193 168 -19 275 2 440 83 132
65 216 144 274 259 38 75 39 79 32 152 -20 216 -102 312 -337 391 -106 35
-124 38 -249 41 -104 3 -154 0 -220 -15z m393 -185 c52 -25 125 -98 144 -144
79 -187 -135 -402 -402 -404 -174 -1 -301 57 -356 164 -74 144 69 338 289 393
83 21 275 15 325 -9z"/>
<path d="M20584 4900 c-54 -21 -32 -77 54 -138 69 -48 367 -221 465 -270 77
-38 176 -54 202 -32 8 7 15 28 15 47 0 47 -30 74 -170 158 -307 182 -497 261
-566 235z"/>
<path d="M10162 11960 c-45 -42 -17 -120 86 -245 l50 -59 -30 -44 c-16 -24
-46 -77 -65 -119 -44 -95 -54 -210 -30 -346 18 -105 50 -173 123 -261 117
-140 193 -171 419 -170 121 0 167 5 240 23 140 35 652 132 730 138 182 14 393
-87 467 -224 45 -81 72 -196 73 -303 0 -88 -3 -101 -32 -160 -61 -124 -184
-234 -334 -297 -58 -25 -75 -28 -184 -27 -148 0 -248 25 -362 91 -97 56 -144
73 -198 73 -49 0 -85 -31 -85 -73 0 -38 66 -107 156 -163 252 -157 537 -186
816 -83 92 34 76 38 181 -59 111 -102 176 -123 227 -72 39 39 17 107 -67 201
-97 109 -93 88 -31 171 140 185 168 289 133 494 -37 215 -88 318 -216 439
-132 125 -223 175 -361 199 -183 32 -247 31 -428 -7 -91 -19 -190 -38 -220
-42 -30 -4 -127 -25 -215 -47 -151 -39 -169 -41 -315 -42 -182 -1 -190 2 -239
93 -44 83 -64 170 -56 241 24 205 215 349 489 366 81 6 142 -3 287 -41 58 -15
70 -15 95 -4 66 32 27 136 -74 200 -59 37 -120 56 -247 75 -136 21 -278 2
-426 -56 -27 -11 -52 -20 -54 -20 -2 0 -35 32 -74 70 -101 102 -182 133 -229
90z"/>
<path d="M19170 10280 c-19 -10 -63 -44 -98 -74 -40 -35 -72 -56 -87 -56 -14
0 -69 17 -122 39 -130 51 -137 52 -274 52 -203 -1 -311 -40 -439 -158 -93 -86
-112 -129 -118 -257 -6 -132 17 -258 69 -395 23 -58 55 -146 71 -196 17 -49
48 -136 69 -193 104 -275 120 -451 53 -589 -30 -62 -89 -125 -143 -153 -121
-61 -351 -79 -474 -36 -175 62 -320 199 -428 406 -49 95 -33 368 26 446 98
129 97 256 -2 283 -74 21 -125 -26 -205 -184 -63 -123 -79 -179 -85 -290 -9
-161 37 -327 127 -462 l21 -32 -81 -87 c-118 -125 -131 -170 -64 -223 54 -43
126 -23 242 66 70 53 73 55 95 39 113 -83 225 -144 337 -182 44 -15 82 -19
190 -18 174 1 276 21 396 79 220 106 330 283 341 545 l4 115 -99 290 c-54 160
-118 340 -142 400 -94 242 -111 378 -56 449 57 76 179 110 337 96 91 -8 119
-19 211 -82 70 -47 92 -76 157 -205 71 -142 75 -166 62 -320 -6 -70 -14 -144
-17 -164 -5 -31 -2 -41 26 -72 41 -47 76 -49 124 -6 20 17 49 58 66 92 25 52
32 82 42 191 16 183 5 243 -75 410 l-64 132 63 73 c34 40 70 89 79 108 20 41
15 96 -11 124 -22 25 -78 24 -124 -1z"/>
<path d="M15318 9475 c-3 -3 -88 -14 -189 -25 -721 -76 -1552 -254 -2439 -521
-236 -71 -921 -305 -1034 -354 -45 -19 -107 -42 -138 -50 -30 -8 -159 -55
-284 -106 -126 -50 -283 -110 -349 -134 -66 -23 -194 -73 -284 -110 -91 -37
-293 -115 -450 -175 -157 -59 -389 -151 -516 -205 -126 -54 -266 -109 -310
-122 -44 -14 -174 -61 -290 -105 -552 -211 -1369 -484 -1955 -653 -579 -167
-1384 -339 -1875 -400 -219 -27 -464 -67 -526 -85 -74 -21 -112 -68 -168 -205
-52 -126 -85 -177 -193 -296 l-100 -110 11 -177 c22 -323 90 -993 131 -1282
11 -74 29 -205 40 -290 11 -85 68 -441 125 -790 149 -912 155 -950 155 -1003
0 -52 34 -288 51 -350 12 -46 46 -69 144 -98 145 -43 167 -52 223 -89 31 -22
102 -80 156 -129 55 -49 122 -102 150 -117 48 -27 51 -27 185 -21 75 4 215 18
311 32 192 28 1053 197 1122 220 24 8 111 29 193 45 436 90 1363 356 2000 574
148 50 336 116 930 325 127 45 268 97 314 117 46 20 181 70 300 111 119 41
396 142 616 225 561 210 944 347 1350 481 888 293 1100 355 1870 548 684 171
1235 279 2015 394 456 68 483 74 498 113 6 15 13 86 14 157 4 152 16 183 104
275 57 60 98 138 109 207 6 37 1 55 -41 145 -26 57 -73 174 -105 261 -33 87
-90 231 -128 320 -38 89 -72 174 -76 189 -4 14 -22 50 -41 79 -19 29 -34 60
-34 67 0 8 -22 66 -49 130 -67 158 -287 734 -362 946 -33 94 -87 243 -119 331
-57 156 -118 346 -181 570 -54 186 -106 378 -118 430 -7 28 -37 102 -67 165
-65 136 -109 183 -234 250 -107 58 -143 87 -226 185 -86 102 -105 115 -175
115 -31 0 -58 -2 -61 -5z m45 -203 c10 -9 34 -37 52 -62 63 -86 210 -184 317
-210 26 -7 51 -17 56 -24 5 -6 17 -45 27 -86 10 -41 39 -152 66 -246 26 -93
61 -226 78 -295 41 -172 111 -405 176 -587 31 -84 66 -194 79 -245 14 -51 42
-132 64 -182 21 -49 61 -151 87 -225 26 -74 66 -175 88 -225 22 -49 66 -160
98 -245 31 -85 117 -301 189 -480 73 -179 179 -448 237 -599 57 -151 106 -278
109 -282 2 -5 -19 -26 -48 -48 -82 -62 -98 -81 -134 -156 -33 -69 -54 -179
-54 -280 l0 -41 -137 -12 c-295 -27 -1032 -141 -1363 -212 -335 -71 -773 -172
-875 -201 -60 -17 -229 -61 -375 -99 -350 -91 -640 -177 -1005 -300 -165 -55
-338 -111 -385 -125 -116 -33 -701 -236 -984 -341 -127 -48 -294 -108 -371
-134 -77 -27 -219 -78 -315 -115 -1034 -396 -2525 -916 -2870 -1001 -58 -14
-130 -34 -160 -45 -112 -40 -670 -189 -840 -224 -96 -20 -240 -52 -319 -71
-166 -40 -778 -153 -1026 -189 -182 -27 -268 -31 -309 -15 -14 5 -70 51 -123
101 -131 123 -211 173 -347 217 -61 19 -112 36 -113 36 -1 1 -33 208 -72 461
-102 667 -151 975 -161 1015 -14 56 -47 277 -75 503 -14 114 -39 279 -55 366
-16 88 -38 244 -50 348 -11 103 -34 298 -50 433 -17 135 -41 330 -53 434 l-23
189 46 31 c25 17 81 67 126 112 88 88 147 188 159 269 4 24 12 49 19 54 13 11
164 33 409 61 97 11 203 26 235 34 31 8 143 31 247 51 625 119 1361 307 2080
530 527 164 1546 527 2060 735 138 56 357 142 489 191 131 50 283 110 338 134
55 25 119 50 142 56 41 11 219 79 501 192 289 115 1063 388 1440 508 261 83
424 128 926 253 457 115 636 152 1019 211 162 25 360 57 440 70 80 13 159 26
175 28 45 7 98 -3 118 -21z"/>
<path d="M15030 9120 c-19 -5 -78 -14 -130 -20 -224 -27 -526 -115 -550 -161
-15 -28 -12 -76 7 -95 15 -14 31 -16 113 -11 52 3 136 15 185 26 50 11 162 29
250 41 313 41 415 81 403 160 -6 45 -50 65 -151 67 -51 1 -108 -2 -127 -7z"/>
<path d="M10665 7515 c-333 -30 -533 -91 -875 -266 -378 -193 -775 -567 -1013
-955 -168 -274 -332 -708 -358 -945 -6 -53 -9 -206 -7 -340 l4 -244 48 -150
c55 -175 113 -301 185 -408 28 -42 56 -89 62 -104 17 -47 265 -282 380 -360
137 -93 226 -137 384 -189 170 -55 318 -83 484 -90 340 -15 670 60 1016 230
640 315 1109 848 1330 1511 80 241 90 310 90 630 0 317 3 295 -100 612 -44
138 -67 189 -121 278 -90 150 -124 193 -250 317 -177 174 -294 259 -474 342
-120 55 -193 76 -374 106 -234 38 -252 39 -411 25z m376 -215 c194 -40 400
-130 553 -243 149 -110 345 -318 375 -398 7 -19 33 -74 56 -124 50 -103 140
-375 155 -468 22 -134 6 -469 -30 -648 -55 -267 -210 -591 -418 -869 -259
-345 -667 -635 -1091 -774 -246 -80 -314 -91 -571 -91 -214 0 -230 2 -335 29
-177 46 -312 98 -474 185 -113 61 -322 270 -437 437 -99 143 -171 323 -211
529 -24 125 -24 449 0 590 57 324 135 515 341 825 100 152 123 179 295 350
185 184 322 297 496 407 93 58 198 113 218 113 8 0 34 11 58 24 98 54 362 132
492 146 130 14 414 3 528 -20z"/>
<path d="M10104 6891 c-17 -10 -41 -35 -53 -55 -22 -35 -22 -39 -10 -133 l13
-97 -40 -30 c-21 -17 -82 -73 -135 -126 -183 -183 -254 -381 -204 -574 20 -78
55 -120 129 -156 85 -41 191 -57 551 -80 440 -28 500 -38 588 -99 133 -92 178
-208 142 -367 -47 -211 -172 -367 -370 -460 -123 -57 -209 -78 -330 -78 -98
-1 -102 0 -185 41 -101 49 -165 101 -186 151 -52 124 -163 169 -228 91 -34
-40 -33 -85 0 -152 97 -191 230 -303 410 -343 57 -12 109 -15 210 -12 129 3
135 3 139 -17 29 -130 38 -163 57 -196 44 -78 124 -74 161 9 17 41 19 58 12
173 l-7 127 59 31 c87 47 180 120 265 210 87 91 152 208 190 346 32 116 32
315 -1 398 -107 273 -299 346 -991 377 -210 9 -276 18 -372 51 l-38 12 0 95
c0 89 2 98 37 166 115 218 361 334 603 282 85 -18 147 -46 231 -102 64 -43 71
-46 98 -34 142 58 74 208 -147 321 l-67 34 -188 3 -187 4 -6 26 c-13 63 -39
119 -70 150 -37 37 -39 38 -80 13z"/>
<path d="M14550 7495 c-36 -8 -103 -33 -149 -56 -106 -52 -231 -171 -276 -264
-27 -54 -30 -70 -30 -156 0 -90 2 -99 39 -173 97 -197 301 -306 546 -293 184
11 336 73 451 187 75 74 101 122 119 218 34 188 -81 380 -284 476 -130 61
-301 87 -416 61z m283 -204 c70 -40 149 -126 165 -178 55 -184 -59 -332 -288
-375 -199 -37 -384 109 -384 302 0 47 6 76 21 105 21 40 115 139 150 159 33
18 88 25 184 22 87 -3 101 -6 152 -35z"/>
<path d="M12205 7200 c-65 -26 -58 -63 45 -239 44 -76 80 -141 80 -146 0 -5
16 -31 35 -59 66 -98 169 -400 200 -590 35 -214 29 -507 -15 -734 -24 -124
-19 -174 22 -215 35 -36 59 -30 110 24 58 63 83 154 113 417 21 182 21 374 1
497 -46 275 -161 632 -234 724 -15 20 -40 56 -54 81 -32 56 -181 216 -219 235
-31 17 -54 18 -84 5z"/>
<path d="M12894 6782 c-50 -40 -56 -91 -20 -169 29 -62 58 -200 81 -383 27
-226 36 -268 59 -302 17 -26 30 -34 58 -36 49 -4 71 9 94 55 37 75 17 399 -36
592 -27 94 -61 162 -112 217 -45 49 -86 58 -124 26z"/>
<path d="M5748 6205 c-3 -3 -63 -14 -134 -25 -238 -35 -539 -89 -590 -104
-106 -33 -138 -113 -62 -152 47 -25 210 -19 451 17 348 51 477 81 515 122 69
74 5 147 -129 147 -25 0 -48 -2 -51 -5z"/>
<path d="M8241 5875 c-38 -33 -82 -144 -127 -324 -57 -225 -67 -333 -61 -671
6 -329 17 -402 84 -600 59 -174 215 -464 285 -528 37 -34 98 -28 116 11 23 48
1 115 -153 467 -114 259 -150 465 -142 805 6 246 29 430 71 560 14 44 31 119
37 167 10 77 10 91 -5 113 -22 33 -65 33 -105 0z"/>
<path d="M7748 5264 c-34 -18 -63 -72 -85 -161 -14 -55 -17 -115 -17 -303 -1
-218 1 -244 27 -365 56 -263 101 -381 158 -411 40 -20 54 -18 90 14 30 27 32
33 31 93 -1 41 -18 129 -47 241 -49 194 -58 266 -74 643 -11 264 -18 285 -83
249z"/>
<path d="M16165 5115 c-408 -47 -552 -111 -467 -208 27 -31 89 -40 232 -34
286 13 585 52 648 85 32 16 37 24 40 58 3 46 -19 73 -78 94 -52 18 -239 21
-375 5z"/>
<path d="M6251 4744 c-91 -24 -179 -73 -246 -135 -122 -115 -169 -219 -163
-364 5 -110 32 -168 123 -261 100 -101 199 -144 335 -144 225 0 394 104 488
300 94 196 74 371 -57 493 -118 110 -314 156 -480 111z m218 -170 c61 -18 123
-70 153 -127 25 -51 34 -133 18 -183 -33 -105 -157 -225 -248 -241 -79 -13
-175 -7 -224 14 -52 24 -101 90 -124 170 -14 48 -14 58 1 110 44 153 118 237
230 264 52 12 140 10 194 -7z"/>
<path d="M6235 2163 c-11 -2 -40 -11 -65 -19 -25 -8 -126 -28 -225 -44 -264
-43 -368 -73 -406 -116 -61 -70 -7 -134 113 -134 91 0 531 69 668 104 146 38
170 50 193 98 15 31 15 35 -2 63 -9 16 -28 36 -42 42 -23 12 -188 16 -234 6z"/>
</g>
</svg>
